# xmcd
# Track frame offsets:
# 150
# 11149
# 21439
# 32931
# 44119
# 56945
# 66708
# 79549
# 94876
# 114267
#
# Disc length: 1690 seconds
# Revision: 0
# Processed by: cddbd v1.5.2PL0 Copyright (c) Steve Scherf et al.
# Submitted via: VisiTrax 2.11.2.271 - For more info visit www.synapsa.com
#
DISCID=9106980a
DTITLE=East Texas - East Texas
DYEAR=1900
DGENRE=Country
TTITLE0=Knockin'on Heaven's Door
TTITLE1=Gotta Lot of Rythym in My Soul
TTITLE2=High Noon
TTITLE3=All Over Now
TTITLE4=Oakie Boogie
TTITLE5=Only Cat
TTITLE6=My Baby Left Me
TTITLE7=Number Nine
TTITLE8=Milkcow Blues
TTITLE9=Fire Away
EXTD=
EXTT0=
EXTT1=
EXTT2=
EXTT3=
EXTT4=
EXTT5=
EXTT6=
EXTT7=
EXTT8=
EXTT9=
PLAYORDER=
